<?xml version="1.0" encoding="UTF-8"?>
<svg version="1.1" xmlns="http://www.w3.org/2000/svg" width="1024" height="1024">
<path d="M0 0 C1.31314682 -0.00705963 2.62629364 -0.01411926 3.97923279 -0.02139282 C8.19970246 -0.04093958 12.42011431 -0.04608521 16.640625 -0.046875 C17.35990299 -0.04716957 18.07918098 -0.04746414 18.82025528 -0.04776764 C40.31556838 -0.0491905 61.56639756 0.15136694 82.890625 3.203125 C83.6036377 3.30258423 84.31665039 3.40204346 85.05126953 3.5045166 C136.49110975 10.6858371 185.45206129 25.05137528 232.890625 46.203125 C233.78507324 46.59999512 234.67952148 46.99686523 235.60107422 47.40576172 C249.18225982 53.47908559 262.03255283 60.73954473 274.890625 68.203125 C276.49606627 69.12765189 278.1015333 70.05213404 279.70703125 70.9765625 C287.9748373 75.7621866 296.03733394 80.75569895 303.890625 86.203125 C304.51372559 86.63318848 305.13682617 87.06325195 305.77880859 87.50634766 C320.83369904 97.91837798 335.4429863 108.84402302 349.28710938 120.82617188 C350.94968831 122.25384319 352.62884245 123.6597684 354.3125 125.0625 C362.4461377 131.87337401 370.00771972 139.11195829 377.41943359 146.69921875 C380.68535477 150.03776412 384.00688832 153.31860318 387.34375 156.5859375 C393.92071048 163.05171624 400.22029256 169.49972539 405.93359375 176.75 C407.75647379 179.0349674 409.66031761 181.17971699 411.640625 183.328125 C417.25958621 189.58382734 422.2443256 196.35050117 427.28857422 203.0703125 C428.73402936 204.994649 430.18859511 206.91171912 431.64453125 208.828125 C449.62310801 232.70388852 464.44184031 258.56855804 477.890625 285.203125 C478.36000488 286.13108887 478.82938477 287.05905273 479.31298828 288.01513672 C503.54487919 336.30068046 518.70988943 388.97721148 526.203125 442.390625 C526.35031982 443.43710205 526.49751465 444.4835791 526.64916992 445.56176758 C527.11333033 449.1042159 527.51715861 452.65023356 527.890625 456.203125 C527.97676056 457.00679504 528.06289612 457.81046509 528.15164185 458.63848877 C529.91657383 475.62042852 530.25467092 492.54766627 530.20868301 509.60852051 C530.20303927 511.73543371 530.20022107 513.86233894 530.19760132 515.98925781 C530.16138501 536.21291642 529.76011954 556.15055491 526.890625 576.203125 C526.64119141 578.08161133 526.64119141 578.08161133 526.38671875 579.99804688 C514.94064559 665.50445264 482.25297533 746.78704859 421.890625 828.203125 C421.06957275 829.23397217 421.06957275 829.23397217 420.23193359 830.28564453 C414.30649475 837.72511702 408.29542773 845.04341224 401.859375 852.05078125 C400.03359179 854.04682599 398.27112435 856.08288166 396.515625 858.140625 C391.91654081 863.42742272 386.87536637 868.28455276 381.890625 873.203125 C379.077322 876.0026373 376.2842065 878.82023546 373.5078125 881.65625 C367.04203376 888.23321048 360.59402461 894.53279256 353.34375 900.24609375 C351.0587826 902.06897379 348.91403301 903.97281761 346.765625 905.953125 C340.50992266 911.57208621 333.74324883 916.5568256 327.0234375 921.60107422 C325.099101 923.04652936 323.18203088 924.50109511 321.265625 925.95703125 C297.38986148 943.93560801 271.52519196 958.75434031 244.890625 972.203125 C243.96266113 972.67250488 243.03469727 973.14188477 242.07861328 973.62548828 C173.52021563 1008.03122308 96.89274008 1024.73586673 20.40399933 1024.52118301 C18.35614442 1024.51552981 16.30829784 1024.51271747 14.26043701 1024.51010132 C-6.00843906 1024.47248142 -26.00009663 1023.97644207 -46.109375 1021.203125 C-47.38022949 1021.03683594 -48.65108398 1020.87054687 -49.96044922 1020.69921875 C-102.2779648 1013.72785332 -153.5013317 999.11368654 -201.109375 976.203125 C-202.16688965 975.69555664 -203.2244043 975.18798828 -204.31396484 974.66503906 C-243.52829408 955.72407023 -280.68556664 932.18752304 -313.5703125 903.53173828 C-315.20406169 902.12138563 -316.85735824 900.73689086 -318.515625 899.35546875 C-326.65574951 892.54192487 -334.22182234 885.29904916 -341.63818359 877.70703125 C-344.90410477 874.36848588 -348.22563832 871.08764682 -351.5625 867.8203125 C-358.13946048 861.35453376 -364.43904256 854.90652461 -370.15234375 847.65625 C-371.97522379 845.3712826 -373.87906761 843.22653301 -375.859375 841.078125 C-381.47833621 834.82242266 -386.4630756 828.05574883 -391.50732422 821.3359375 C-392.95277936 819.411601 -394.40734511 817.49453088 -395.86328125 815.578125 C-413.84185801 791.70236148 -428.66059031 765.83769196 -442.109375 739.203125 C-442.81344482 737.8111792 -442.81344482 737.8111792 -443.53173828 736.39111328 C-478.32866877 667.05320171 -494.63456182 590.03995836 -494.421875 512.765625 C-494.41965233 511.33719896 -494.41747582 509.90877285 -494.41534424 508.48034668 C-494.3728565 487.92752254 -494.07595284 467.58359346 -491.109375 447.203125 C-491.0075592 446.49764526 -490.90574341 445.79216553 -490.80084229 445.06530762 C-483.31718516 393.55609631 -469.39118616 344.74600123 -448.109375 297.203125 C-447.71395508 296.31302734 -447.31853516 295.42292969 -446.91113281 294.50585938 C-440.83628963 280.91922864 -433.57163983 268.06829372 -426.109375 255.203125 C-425.20801565 253.63299483 -424.30695235 252.06269465 -423.40625 250.4921875 C-418.00955576 241.1386843 -412.25563305 232.08159251 -406.109375 223.203125 C-405.71282715 222.63029785 -405.3162793 222.0574707 -404.90771484 221.46728516 C-394.70426536 206.81157323 -383.81743903 192.68628261 -372.109375 179.203125 C-371.15804687 178.10097656 -371.15804687 178.10097656 -370.1875 176.9765625 C-368.50663039 175.04124933 -366.81117344 173.1200492 -365.109375 171.203125 C-364.42488281 170.42582031 -363.74039063 169.64851562 -363.03515625 168.84765625 C-357.6077896 162.73831683 -351.92979476 156.93681665 -346.109375 151.203125 C-343.29596502 148.40373533 -340.50290808 145.5860478 -337.7265625 142.75 C-331.27825458 136.19079597 -324.85057322 129.91266879 -317.6171875 124.21875 C-315.1894086 122.26745107 -312.93972497 120.21164239 -310.671875 118.078125 C-281.0303368 91.11844026 -244.68566026 70.16691623 -209.109375 52.203125 C-207.7174292 51.49905518 -207.7174292 51.49905518 -206.29736328 50.78076172 C-143.51312136 19.27276195 -70.44710605 0.25244786 0 0 Z " fill="#DF995D" transform="translate(494.109375,-0.203125)"/>
<path d="M0 0 C1.68672308 -0.00650665 3.37343789 -0.01557722 5.06013489 -0.0269928 C9.60789745 -0.04992239 14.15481263 -0.03544491 18.70254707 -0.01252341 C23.48151846 0.00650633 28.2604371 -0.00478357 33.03942871 -0.01142883 C41.06206594 -0.01775397 49.08436696 0.00042024 57.10693359 0.03320312 C66.35706451 0.07069179 75.60655875 0.06891416 84.85672331 0.04616195 C93.78739951 0.02514944 102.71784238 0.03252302 111.64851379 0.0524807 C115.43454226 0.06042779 119.22037126 0.05852222 123.00639343 0.04845619 C127.47189383 0.03783721 131.93665982 0.05222445 136.4020443 0.08519936 C138.03212681 0.09334614 139.66227734 0.09319445 141.29235268 0.08372116 C152.86300532 0.02390727 163.140027 1.24613127 172.19726562 9.19799805 C181.22695205 19.3030886 185.79066999 31.98711023 190.86474609 44.33496094 C194.13844756 52.1775613 197.62374704 59.08535113 202.94726562 65.76049805 C203.89472656 67.02893555 203.89472656 67.02893555 204.86132812 68.32299805 C207.0232002 70.84923058 209.14825566 72.57165454 211.88476562 74.44799805 C212.71878906 75.02936523 213.5528125 75.61073242 214.41210938 76.2097168 C220.01372664 79.63628391 224.45409777 80.04761778 230.87744141 80.01586914 C232.21265587 80.02129982 232.21265587 80.02129982 233.57484436 80.02684021 C235.50419212 80.0337224 237.43355929 80.03624186 239.36291885 80.03489304 C242.4245231 80.03392545 245.48577849 80.04689958 248.54733276 80.06387329 C257.25092843 80.11006216 265.95448909 80.13472928 274.65820312 80.14135742 C279.98742467 80.14639373 285.31628355 80.1707545 290.64538193 80.20668411 C292.66817922 80.21643644 294.6910267 80.2188392 296.71384048 80.21351242 C312.51705919 80.1738647 324.08022652 81.51131908 336.00585938 92.69018555 C347.43588331 104.48752595 350.25519401 118.25005496 350.20123291 134.01889038 C350.20353867 135.48282324 350.20671597 136.94675494 350.2106874 138.41068423 C350.21902838 142.42508356 350.21491327 146.43938767 350.20871496 150.45378733 C350.20418856 154.78653512 350.21117523 159.11926657 350.2166748 163.45201111 C350.22556887 171.93712398 350.2236466 180.42220146 350.21784952 188.90731572 C350.2133325 195.80448159 350.21272031 202.70163755 350.21489716 209.59880447 C350.21520362 210.58051078 350.21551009 211.56221708 350.21582584 212.57367206 C350.2164653 214.56802475 350.21711372 216.56237743 350.21777102 218.55673011 C350.22347451 237.25935429 350.21691644 255.96195886 350.20617029 274.66457982 C350.19723756 290.7076301 350.1987845 306.75065142 350.20800781 322.79370117 C350.21871492 341.42637058 350.22292225 360.0590228 350.21678329 378.69169486 C350.21614619 380.6793166 350.21551745 382.66693834 350.21489716 384.65456009 C350.2145886 385.63248791 350.21428005 386.61041573 350.21396215 387.61797773 C350.21223633 394.50476661 350.21514796 401.39154457 350.21985626 408.27833176 C350.2254701 416.67418636 350.22393816 425.07000358 350.21329477 433.46585391 C350.20804443 437.74845197 350.20597044 442.03098771 350.21259308 446.31358528 C350.21856798 450.23671705 350.21525204 454.15972898 350.20463797 458.08284993 C350.20241044 459.49934476 350.20352567 460.91584979 350.20838955 462.33233802 C350.25630027 477.44905137 348.15489912 490.2866807 337.36523438 501.4987793 C327.87082415 510.37965736 317.54231357 513.23998481 304.70415401 513.13802147 C303.73039632 513.14238179 302.75663862 513.14674211 301.75337312 513.15123457 C298.50690082 513.16213885 295.26085787 513.15179122 292.01438904 513.14144897 C289.65675915 513.14490743 287.29913087 513.14967325 284.94150597 513.15563071 C279.15236219 513.16683411 273.36334248 513.16412843 267.57419706 513.15547841 C260.63597464 513.14589195 253.69779925 513.15376338 246.75957915 513.16211415 C233.16679664 513.17789585 219.57405649 513.17654844 205.98126997 513.16787741 C194.08653387 513.16032695 182.19181328 513.15836242 170.29707527 513.16194534 C169.11298033 513.16228908 169.11298033 513.16228908 167.90496428 513.16263975 C164.70045423 513.16357379 161.49594418 513.16452899 158.29143415 513.16551904 C128.23964226 513.1746931 98.18787734 513.16638017 68.13608961 513.15022835 C41.44235585 513.13599048 14.74866503 513.13726692 -11.94506836 513.15161133 C-41.94385418 513.16767793 -71.94261619 513.17404383 -101.94140571 513.16477454 C-105.13972373 513.1638124 -108.33804176 513.16287388 -111.53635979 513.16194534 C-112.32385298 513.16170811 -113.11134617 513.16147088 -113.92270279 513.16122646 C-125.81006831 513.1578153 -137.69741661 513.1618025 -149.58477974 513.169384 C-163.10164369 513.17796185 -176.61845871 513.17581706 -190.13531656 513.15954177 C-197.03269114 513.15151059 -203.92998627 513.14818845 -210.82736015 513.15848923 C-217.14053176 513.16742425 -223.45353532 513.16252267 -229.76669168 513.14655657 C-232.0511808 513.14320377 -234.33568409 513.14491401 -236.6201641 513.15218394 C-239.72546581 513.1613084 -242.83019215 513.15194714 -245.93546391 513.13802147 C-247.26546409 513.14855672 -247.26546409 513.14855672 -248.62233296 513.1593048 C-260.72643331 513.05083964 -269.96969276 508.59950375 -278.80273438 500.51049805 C-282.64655413 496.49722917 -284.87811567 491.82646371 -287.05273438 486.76049805 C-287.40722656 485.97932617 -287.76171875 485.1981543 -288.12695312 484.39331055 C-289.95243735 479.20184907 -290.17781717 473.8515649 -290.18695545 468.38851643 C-290.1914133 467.14537404 -290.19587114 465.90223166 -290.20046407 464.6214183 C-290.20037479 463.25504322 -290.20018498 461.88866814 -290.1999054 460.52229309 C-290.20320791 459.0604989 -290.20693429 457.59870562 -290.21104687 456.13691348 C-290.22103048 452.12833619 -290.22477776 448.11977386 -290.22743618 444.11118591 C-290.23134992 439.78451587 -290.2409273 435.45785758 -290.24964905 431.13119507 C-290.26938039 420.68828802 -290.27947416 410.24538005 -290.28837684 399.80245903 C-290.29276406 394.88130778 -290.29812964 389.9601576 -290.30336571 385.03900719 C-290.32037251 368.67552953 -290.33486698 352.31205253 -290.34211445 335.94856739 C-290.34402424 331.70545768 -290.34594459 327.46234797 -290.34790039 323.21923828 C-290.34838413 322.16467627 -290.34886787 321.11011426 -290.34936627 320.02359583 C-290.35766783 302.93785144 -290.38300934 285.85217703 -290.41548107 268.7664632 C-290.44856579 251.21482963 -290.46656438 233.66323163 -290.46975869 216.11156672 C-290.47192217 206.26095179 -290.48064743 196.41043901 -290.50621986 186.55985451 C-290.52794591 178.1717511 -290.53596779 169.78377467 -290.52625308 161.39564631 C-290.52171429 157.11867396 -290.5235701 152.84196351 -290.54301453 148.56502724 C-290.56068879 144.64348342 -290.55961433 140.72239175 -290.54411723 136.80084284 C-290.54174764 135.38832557 -290.54603087 133.97577663 -290.55794588 132.56330762 C-290.67805395 117.37442424 -286.42803618 103.2275614 -275.86523438 91.94799805 C-268.46069765 84.94574515 -260.2742518 80.56763923 -250.05273438 80.76049805 C-250.13523438 79.64674805 -250.21773437 78.53299805 -250.30273438 77.38549805 C-250.26497762 70.2746428 -247.62834719 64.02682391 -242.74023438 58.88549805 C-232.21094877 49.42246921 -219.6841194 48.29427246 -205.99414062 48.3269043 C-204.68799301 48.32166245 -203.3818454 48.31642059 -202.03611755 48.3110199 C-199.29049907 48.30216108 -196.54517257 48.30442825 -193.79956055 48.31445312 C-190.31896862 48.32593721 -186.83939226 48.30570419 -183.35893345 48.27653599 C-179.98728651 48.25354962 -176.61586346 48.26065048 -173.24414062 48.2644043 C-172.01458145 48.25317032 -170.78502228 48.24193634 -169.51820374 48.23036194 C-158.14821266 48.32063419 -146.66102676 50.33855664 -138.25195312 58.51049805 C-131.53662044 65.62902877 -129.98932644 71.214282 -130.05273438 80.76049805 C-123.13281847 80.76964364 -116.21425115 80.73191761 -109.29467773 80.6628418 C-106.94480044 80.64476458 -104.59481758 80.63709813 -102.24487305 80.64038086 C-98.85058206 80.64326165 -95.4584439 80.60769848 -92.06445312 80.56518555 C-91.0275383 80.57427948 -89.99062347 80.58337341 -88.92228699 80.59274292 C-79.24339749 80.40338976 -71.7893684 76.75199387 -64.92773438 69.94799805 C-56.53533587 59.67159172 -51.62853602 47.03894664 -46.85913086 34.8046875 C-41.31727301 20.65752904 -34.76783113 8.95252712 -20.6698761 2.06302452 C-13.91646857 -0.36886584 -7.08181936 -0.06505263 0 0 Z " fill="#4F5D73" transform="translate(482.052734375,239.239501953125)"/>
<path d="M0 0 C1.67964586 1.4433654 3.34681851 2.90139733 5 4.375 C6.27230469 5.48488281 6.27230469 5.48488281 7.5703125 6.6171875 C10.08069734 8.83584566 12.54867235 11.09135274 15 13.375 C15.75023437 14.07109375 16.50046875 14.7671875 17.2734375 15.484375 C48.05209606 45.07508533 64.40093978 88.5693218 65.40429688 130.68115234 C65.58864779 150.49616515 62.92578722 169.7627703 56 188.375 C55.71108887 189.16358398 55.42217773 189.95216797 55.12451172 190.76464844 C39.28284626 233.52974638 7.65845405 268.04037775 -33.859375 287.2109375 C-37.52920698 288.75226693 -41.22919908 290.10911919 -45 291.375 C-45.83192871 291.66213867 -46.66385742 291.94927734 -47.52099609 292.24511719 C-90.78471969 306.99779258 -136.23530871 304.27618134 -177.48193359 284.63867188 C-194.51091259 276.09281234 -209.30618302 264.52481603 -223 251.375 C-223.5576001 250.84003906 -224.1152002 250.30507813 -224.68969727 249.75390625 C-242.89193227 231.96973936 -255.00108372 209.30948182 -263 185.375 C-263.25362305 184.6329834 -263.50724609 183.8909668 -263.76855469 183.12646484 C-277.83294389 141.41729444 -272.2338333 95.44493035 -253 56.375 C-244.840051 40.58407828 -234.21159942 27.19717939 -222 14.375 C-221.33484375 13.65699219 -220.6696875 12.93898438 -219.984375 12.19921875 C-163.92990142 -46.56376931 -62.32763911 -50.23029144 0 0 Z " fill="#77B3D3" transform="translate(647,394.625)"/>
<path d="M0 0 C1.67964586 1.4433654 3.34681851 2.90139733 5 4.375 C6.27230469 5.48488281 6.27230469 5.48488281 7.5703125 6.6171875 C10.08069734 8.83584566 12.54867235 11.09135274 15 13.375 C15.75023437 14.07109375 16.50046875 14.7671875 17.2734375 15.484375 C48.05209606 45.07508533 64.40093978 88.5693218 65.40429688 130.68115234 C65.58864779 150.49616515 62.92578722 169.7627703 56 188.375 C55.71108887 189.16358398 55.42217773 189.95216797 55.12451172 190.76464844 C39.28284626 233.52974638 7.65845405 268.04037775 -33.859375 287.2109375 C-37.52920698 288.75226693 -41.22919908 290.10911919 -45 291.375 C-45.83192871 291.66213867 -46.66385742 291.94927734 -47.52099609 292.24511719 C-90.78471969 306.99779258 -136.23530871 304.27618134 -177.48193359 284.63867188 C-194.51091259 276.09281234 -209.30618302 264.52481603 -223 251.375 C-223.5576001 250.84003906 -224.1152002 250.30507813 -224.68969727 249.75390625 C-242.89193227 231.96973936 -255.00108372 209.30948182 -263 185.375 C-263.25362305 184.6329834 -263.50724609 183.8909668 -263.76855469 183.12646484 C-277.83294389 141.41729444 -272.2338333 95.44493035 -253 56.375 C-244.840051 40.58407828 -234.21159942 27.19717939 -222 14.375 C-221.33484375 13.65699219 -220.6696875 12.93898438 -219.984375 12.19921875 C-163.92990142 -46.56376931 -62.32763911 -50.23029144 0 0 Z M-136 17.375 C-136.68030273 17.57867187 -137.36060547 17.78234375 -138.06152344 17.9921875 C-153.94116825 22.95601279 -168.65168794 31.25557293 -181 42.375 C-181.81339844 43.04660156 -182.62679687 43.71820313 -183.46484375 44.41015625 C-200.54917319 58.84951841 -212.61576789 79.05045255 -219 100.375 C-219.20882812 101.07077148 -219.41765625 101.76654297 -219.6328125 102.48339844 C-228.04174477 131.98118775 -223.26977723 163.88791037 -208.76171875 190.61328125 C-204.52211514 198.06309326 -199.60897442 204.89303346 -194 211.375 C-193.00613281 212.58542969 -193.00613281 212.58542969 -191.9921875 213.8203125 C-173.27880758 235.84823942 -145.29950837 249.23186813 -117 253.375 C-84.77036518 255.37094134 -52.41190096 248.20140218 -27.5078125 226.60546875 C-26.26644531 225.50138672 -26.26644531 225.50138672 -25 224.375 C-24.17242188 223.69050781 -23.34484375 223.00601563 -22.4921875 222.30078125 C-6.63155492 208.85156146 4.01829539 190.73849791 11 171.375 C11.30550781 170.58996094 11.61101562 169.80492187 11.92578125 168.99609375 C19.84355655 147.59779845 19.5069353 122.05474275 13 100.375 C12.79632812 99.69469727 12.59265625 99.01439453 12.3828125 98.31347656 C7.42036166 82.43822874 -0.87597011 67.71361201 -12 55.375 C-12.73347656 54.488125 -13.46695313 53.60125 -14.22265625 52.6875 C-32.43995008 31.2768575 -61.89046803 15.66690429 -90 13.375 C-105.7047733 12.45897304 -120.8711179 12.83423316 -136 17.375 Z " fill="#FEFEFE" transform="translate(647,394.625)"/>
<path d="M0 0 C0.33 0 0.66 0 1 0 C1.2475 1.27875 1.495 2.5575 1.75 3.875 C4.61278217 16.31933881 10.04105352 25.50333444 21.0625 32.5 C28.29308272 36.75182984 35.69193275 37.29496338 43.86558819 37.25726891 C45.31968425 37.26252802 45.31968425 37.26252802 46.80315599 37.26789337 C50.05280323 37.27720025 53.30227099 37.27228582 56.55192566 37.26742554 C58.90482759 37.27116215 61.25772828 37.27576371 63.610627 37.28115618 C69.39979437 37.29211663 75.18891213 37.29375665 80.9780882 37.29143447 C87.91409407 37.28915975 94.85007243 37.29844816 101.78607037 37.30799321 C116.1669507 37.3273308 130.54781677 37.33296135 144.92870858 37.33410732 C156.03538921 37.3350266 167.14206424 37.33914427 178.24874306 37.34550858 C181.44643237 37.34730368 184.64412168 37.34908331 187.841811 37.35085833 C188.63678083 37.35130043 189.43175066 37.35174252 190.25081048 37.35219802 C212.61085924 37.36450581 234.97090607 37.37239921 257.33095837 37.37151146 C258.17391561 37.3714803 259.01687285 37.37144914 259.88537425 37.37141704 C264.15777376 37.37125083 268.43017327 37.37105275 272.70257279 37.37084763 C273.55107705 37.37080774 274.39958132 37.37076785 275.27379783 37.37072675 C276.98968046 37.37064587 278.70556308 37.37056228 280.42144571 37.37047596 C307.11472583 37.3692506 333.80795512 37.38426129 360.5012207 37.41162109 C390.49561764 37.44235183 420.48998118 37.45955298 450.48439485 37.45769465 C453.68365594 37.45754539 456.88291702 37.45744798 460.08217812 37.45738602 C460.86990854 37.45736271 461.65763896 37.4573394 462.46924 37.45731538 C475.13801792 37.45725388 487.80675166 37.47001785 500.47551645 37.48725055 C513.21154361 37.50421623 525.94750625 37.50617355 538.68353846 37.4930319 C545.58129098 37.48629793 552.47889777 37.4858787 559.3766346 37.5037384 C565.69382063 37.51944958 572.01071982 37.51662497 578.32789878 37.49917014 C580.61051507 37.49609599 582.89315267 37.49974816 585.17574384 37.51089029 C607.27743636 37.73563711 607.27743636 37.73563711 626 27 C626.92232422 26.13761719 626.92232422 26.13761719 627.86328125 25.2578125 C634.46359372 18.44549856 638.35488819 9.46163986 639 0 C639.33 0 639.66 0 640 0 C640.10026352 4.60402353 640.17211133 9.20738632 640.21972656 13.81225586 C640.23961365 15.37259007 640.26673352 16.93285209 640.30175781 18.49291992 C640.64929752 34.39286171 638.18278759 47.31358603 626.86328125 59.25390625 C617.4011941 68.22059617 608.05831456 70.15644038 595.37212753 70.13142776 C593.92014482 70.13450672 593.92014482 70.13450672 592.43882912 70.13764787 C589.18200536 70.14332065 585.92522384 70.14186027 582.668396 70.14044189 C580.31508309 70.14302536 577.96177062 70.14603847 575.60845876 70.1494453 C569.81061904 70.15667332 564.01279036 70.15921802 558.21494647 70.15977435 C551.27031054 70.16068863 544.32568311 70.16735802 537.38105084 70.17412117 C520.5975144 70.19017615 503.81397887 70.19608366 487.03043613 70.20086992 C479.09089034 70.20320614 471.15134528 70.20680879 463.21180005 70.2105653 C436.03382352 70.22339968 408.85584739 70.2341195 381.67786789 70.2375679 C379.97202983 70.23778953 378.26619177 70.23801132 376.56035371 70.23823325 C374.85040209 70.23845389 373.14045046 70.23867438 371.43049884 70.2388947 C368.00005261 70.23933725 364.56960638 70.23978437 361.13916016 70.24023438 C359.86333475 70.24039846 359.86333475 70.24039846 358.5617351 70.24056586 C330.97718589 70.2441972 303.39266295 70.26012074 275.80812381 70.28342474 C246.6436412 70.30801847 217.47917362 70.3217405 188.31468034 70.32293582 C185.11347595 70.32310727 181.91227158 70.3233227 178.7110672 70.32357025 C177.92284151 70.32362602 177.13461582 70.32368179 176.3225045 70.32373925 C163.63629426 70.32489001 150.95011099 70.33591407 138.26390986 70.35045731 C125.51425827 70.36482063 112.76464126 70.3680602 100.0149838 70.36001733 C93.10751294 70.35595284 86.20012485 70.35667651 79.29266548 70.37107468 C72.97005014 70.38377537 66.6475941 70.38264969 60.3249791 70.37048396 C58.03697261 70.36852034 55.74895499 70.37163595 53.46096417 70.38032833 C50.3508617 70.3913965 47.24132384 70.38394893 44.13123703 70.3719368 C43.243141 70.37953199 42.35504498 70.38712718 41.44003695 70.39495254 C29.33099984 70.29400112 20.08628449 65.84197543 11.25 57.75 C7.40618025 53.73673112 5.1746187 49.06596566 3 44 C2.64550781 43.21882812 2.29101562 42.43765625 1.92578125 41.6328125 C-0.05465034 36.00069904 -0.12141891 30.23330973 -0.09765625 24.31640625 C-0.0962413 23.61603745 -0.09482635 22.91566864 -0.09336853 22.19407654 C-0.08782477 19.98350534 -0.07528326 17.77303996 -0.0625 15.5625 C-0.05747771 14.05273585 -0.05291609 12.54297009 -0.04882812 11.03320312 C-0.03787387 7.35543507 -0.0206489 3.67772788 0 0 Z " fill="#B97F51" transform="translate(192,714)"/>
<path d="M0 0 C0.66 0.33 1.32 0.66 2 1 C2.67016602 3.24975586 2.67016602 3.24975586 3.25390625 6.21484375 C3.46853516 7.29443359 3.68316406 8.37402344 3.90429688 9.48632812 C4.12150391 10.62521484 4.33871094 11.76410156 4.5625 12.9375 C4.78357422 14.04158203 5.00464844 15.14566406 5.23242188 16.28320312 C14.10306193 61.65478504 3.82743661 108.30926015 -21 147 C-25.85029145 153.98513428 -31.12878594 160.47192992 -36.90234375 166.7109375 C-38.74018494 168.71647742 -40.46227074 170.77359293 -42.1875 172.875 C-68.97111987 203.32760889 -112.39636833 221.63966339 -152.17773438 224.83007812 C-198.4053778 227.61333416 -245.14661723 215.37770454 -280.6953125 184.671875 C-282.37047038 183.16576975 -284.03624058 181.6491427 -285.69140625 180.12109375 C-287.81495436 178.17001655 -289.98675681 176.30031718 -292.1875 174.4375 C-321.95865646 148.35059843 -340.51240757 104.38776761 -343.75390625 65.48046875 C-344.98651648 45.80837062 -345.9937962 21.54058489 -338 3 C-337.34 2.67 -336.68 2.34 -336 2 C-335.98598145 3.1746582 -335.98598145 3.1746582 -335.97167969 4.37304688 C-335.47529494 37.71842214 -330.82506477 69.55013627 -314 99 C-313.64437988 99.63824707 -313.28875977 100.27649414 -312.92236328 100.93408203 C-308.04037767 109.65699407 -302.63349149 117.48280809 -296 125 C-295.23429687 125.87527344 -294.46859375 126.75054688 -293.6796875 127.65234375 C-291.48175806 130.129671 -289.25202002 132.57184434 -287 135 C-286.19369141 135.88751953 -286.19369141 135.88751953 -285.37109375 136.79296875 C-262.41092571 161.01911097 -229.4721508 176.17856778 -197 182 C-195.59971558 182.25487183 -195.59971558 182.25487183 -194.17114258 182.51489258 C-151.31688685 189.78970493 -106.61410379 178.38066241 -71 154 C-67.14759785 151.21270644 -63.5479129 148.16374399 -60 145 C-58.69289063 143.8553125 -58.69289063 143.8553125 -57.359375 142.6875 C-54.87727175 140.48779173 -52.43163524 138.25524719 -50 136 C-49.11248047 135.19369141 -49.11248047 135.19369141 -48.20703125 134.37109375 C-26.20476273 113.51858748 -9.70182711 81.62784848 -4 52 C-3.87141602 51.36239746 -3.74283203 50.72479492 -3.61035156 50.06787109 C-0.37060227 33.52990382 -0.28319941 16.79169072 0 0 Z " fill="#465062" transform="translate(712,511)"/>
<path d="M0 0 C2.7087127 2.17759256 5.31741593 4.43270901 7.9140625 6.7421875 C8.74164062 7.42667969 9.56921875 8.11117188 10.421875 8.81640625 C32.43315043 27.4811398 45.7762946 55.49936053 49.9140625 83.7421875 C51.0501833 101.98593693 50.68977445 120.89852493 42.9140625 137.7421875 C42.5840625 137.7421875 42.2540625 137.7421875 41.9140625 137.7421875 C41.8639502 137.04770508 41.81383789 136.35322266 41.76220703 135.63769531 C41.52687897 132.42207876 41.28300729 129.20716141 41.0390625 125.9921875 C40.96042969 124.90035156 40.88179687 123.80851563 40.80078125 122.68359375 C40.00571952 112.34779123 38.87095606 102.20859528 35.2890625 92.4296875 C35.02963867 91.71458008 34.77021484 90.99947266 34.50292969 90.26269531 C24.09211944 62.553547 3.90565161 41.19546345 -22.83203125 28.59765625 C-27.25138113 26.61322692 -31.75153566 24.92871442 -36.3359375 23.3671875 C-37.03162842 23.12846924 -37.72731934 22.88975098 -38.4440918 22.64379883 C-48.7330439 19.32845649 -59.07147853 18.37411341 -69.8359375 18.4296875 C-70.97264893 18.43460205 -72.10936035 18.4395166 -73.28051758 18.44458008 C-82.23441762 18.56870111 -90.42985784 19.40806995 -99.0859375 21.7421875 C-100.91898438 22.23525391 -100.91898438 22.23525391 -102.7890625 22.73828125 C-132.06723785 31.58911041 -154.73781233 51.53819952 -169.3359375 78.1171875 C-179.27221299 96.9629335 -181.53295114 116.79591962 -182.0859375 137.7421875 C-190.85576953 128.97235547 -190.42929637 109.0058276 -190.5234375 97.4296875 C-190.47110188 86.11035195 -189.34113329 75.58781668 -186.0859375 64.7421875 C-185.88226563 64.06188477 -185.67859375 63.38158203 -185.46875 62.68066406 C-180.50492471 46.80101925 -172.20536457 32.09049956 -161.0859375 19.7421875 C-160.41433594 18.92878906 -159.74273437 18.11539063 -159.05078125 17.27734375 C-144.61141909 0.19301431 -124.41048495 -11.87358039 -103.0859375 -18.2578125 C-102.04228027 -18.57105469 -102.04228027 -18.57105469 -100.97753906 -18.890625 C-67.03743477 -28.56592762 -28.36976247 -20.75661102 0 0 Z " fill="#6795B0" transform="translate(614.0859375,430.2578125)"/>
</svg>
